<svg width="28" height="28" viewBox="0 0 28 28" fill="none" xmlns="http://www.w3.org/2000/svg">
<path d="M14 0.5C21.4558 0.5 27.5 6.54416 27.5 14C27.5 21.4558 21.4558 27.5 14 27.5C6.54416 27.5 0.5 21.4558 0.5 14C0.5 6.54416 6.54416 0.5 14 0.5Z" stroke="#666666"/>
<path fill-rule="evenodd" clip-rule="evenodd" d="M7.72505 7.72456C7.96913 7.48048 8.36486 7.48048 8.60893 7.72456L14.0003 13.116L19.3917 7.72456C19.6358 7.48048 20.0315 7.48048 20.2756 7.72456C20.5197 7.96864 20.5197 8.36437 20.2756 8.60845L14.8842 13.9998L20.2756 19.3912C20.5197 19.6353 20.5197 20.031 20.2756 20.2751C20.0315 20.5192 19.6358 20.5192 19.3917 20.2751L14.0003 14.8837L8.60893 20.2751C8.36486 20.5192 7.96913 20.5192 7.72505 20.2751C7.48097 20.031 7.48097 19.6353 7.72505 19.3912L13.1164 13.9998L7.72505 8.60845C7.48097 8.36437 7.48097 7.96864 7.72505 7.72456Z" fill="#474747"/>
</svg>
