<svg width="20" height="20" viewBox="0 0 20 20" fill="none" xmlns="http://www.w3.org/2000/svg">
<path d="M9.99366 15.4163C9.07599 15.4195 8.3331 16.1645 8.3331 17.0829C8.3331 18.0034 9.07929 18.7496 9.99976 18.7496C10.9202 18.7496 11.6664 18.0034 11.6664 17.0829C11.6664 16.1645 10.9235 15.4195 10.0059 15.4163L15.8276 15.4163C14.9097 15.4192 14.1664 16.1643 14.1664 17.0829C14.1664 18.0034 14.9126 18.7496 15.8331 18.7496C16.7536 18.7496 17.4998 18.0034 17.4998 17.0829C17.4998 16.1643 16.7565 15.4192 15.8385 15.4163L17.9164 15.4163C18.3767 15.4163 18.7498 15.0432 18.7498 14.5829C18.7498 14.1227 18.3767 13.7496 17.9164 13.7496L9.58473 13.7496C8.90306 13.7496 8.47466 13.7478 8.1576 13.7054C7.86783 13.6666 7.77923 13.6057 7.72783 13.5582C7.67133 13.506 7.59403 13.4066 7.51452 13.0896C7.43024 12.7535 7.37096 12.2955 7.2813 11.5857L6.33612 4.10303C6.27577 3.62488 6.22145 3.19456 6.13459 2.84821C6.04025 2.472 5.8841 2.08932 5.54985 1.78043C5.21051 1.46682 4.81558 1.34712 4.43135 1.29565C4.08658 1.24947 3.66798 1.24952 3.21541 1.24958L2.0831 1.24959C1.62286 1.24959 1.24976 1.62268 1.24976 2.08292C1.24976 2.54316 1.62286 2.91625 2.0831 2.91625L3.1674 2.91625C3.6844 2.91625 3.98932 2.918 4.21009 2.94757C4.31049 2.96101 4.36283 2.97695 4.3886 2.98726C4.40875 2.99532 4.41435 3.00043 4.41879 3.00454C4.42135 3.00655 4.46454 3.04051 4.51798 3.25361C4.57742 3.49064 4.62038 3.81941 4.68828 4.35694L5.63385 11.8427C5.71566 12.4907 5.78626 13.0497 5.89791 13.495C6.01709 13.9702 6.20659 14.4218 6.59665 14.7822C6.99182 15.1474 7.45582 15.2929 7.93633 15.3573C8.37721 15.4163 8.91871 15.4163 9.53297 15.4163L9.99366 15.4163Z" fill="url(#paint0_linear_10545_9140)"/>
<path fill-rule="evenodd" clip-rule="evenodd" d="M14.8348 3.33291C15.5835 3.33288 16.2079 3.33286 16.7035 3.3995C17.2267 3.46984 17.699 3.62456 18.0786 4.00412C18.4581 4.38368 18.6128 4.85601 18.6832 5.37918C18.7498 5.87482 18.7498 6.49916 18.7498 7.24789L18.7498 9.00124C18.7498 9.74996 18.7498 10.3743 18.6832 10.87C18.6128 11.3931 18.4581 11.8655 18.0786 12.245C17.699 12.6246 17.2267 12.7793 16.7035 12.8496C16.2079 12.9163 15.5835 12.9163 14.8348 12.9162L13.0814 12.9162C12.3327 12.9163 11.7083 12.9163 11.2127 12.8496C10.6895 12.7793 10.2172 12.6246 9.83765 12.245C9.45809 11.8655 9.30336 11.3931 9.23303 10.87C9.16639 10.3743 9.16641 9.75001 9.16643 9.00131L9.16643 7.24791C9.16641 6.49921 9.16639 5.87481 9.23303 5.37918C9.30336 4.85601 9.45809 4.38368 9.83765 4.00412C10.2172 3.62456 10.6895 3.46984 11.2127 3.3995C11.7083 3.33286 12.3327 3.33288 13.0814 3.33291L14.8348 3.33291ZM12.4998 5.62457C12.4998 5.2794 12.7796 4.99957 13.1248 4.99957L14.7914 4.99957C15.1366 4.99957 15.4164 5.2794 15.4164 5.62457C15.4164 5.96975 15.1366 6.24957 14.7914 6.24957L13.1248 6.24957C12.7796 6.24957 12.4998 5.96975 12.4998 5.62457Z" fill="url(#paint1_linear_10545_9140)"/>
<defs>
<linearGradient id="paint0_linear_10545_9140" x1="18.8314" y1="9.74823" x2="1.45601" y2="10.1908" gradientUnits="userSpaceOnUse">
<stop stop-color="#9B6C2E"/>
<stop offset="0.5" stop-color="#C3B066"/>
<stop offset="1" stop-color="#CC9A41"/>
</linearGradient>
<linearGradient id="paint1_linear_10545_9140" x1="18.8314" y1="9.74823" x2="1.45601" y2="10.1908" gradientUnits="userSpaceOnUse">
<stop stop-color="#9B6C2E"/>
<stop offset="0.5" stop-color="#C3B066"/>
<stop offset="1" stop-color="#CC9A41"/>
</linearGradient>
</defs>
</svg>
