<svg width="20" height="20" viewBox="0 0 20 20" fill="none" xmlns="http://www.w3.org/2000/svg">
<path d="M4 0.5H16C17.933 0.5 19.5 2.067 19.5 4V16C19.5 17.933 17.933 19.5 16 19.5H4C2.067 19.5 0.5 17.933 0.5 16V4C0.5 2.067 2.067 0.5 4 0.5Z" fill="#B77F4A"/>
<path d="M4 0.5H16C17.933 0.5 19.5 2.067 19.5 4V16C19.5 17.933 17.933 19.5 16 19.5H4C2.067 19.5 0.5 17.933 0.5 16V4C0.5 2.067 2.067 0.5 4 0.5Z" stroke="#BC8338"/>
<path fill-rule="evenodd" clip-rule="evenodd" d="M15.1273 5.85045C15.3936 6.10467 15.4035 6.52667 15.1492 6.793L8.14923 14.1263C8.02529 14.2562 7.85423 14.3306 7.67474 14.3326C7.49526 14.3347 7.32251 14.2643 7.19559 14.1374L4.86225 11.8041C4.6019 11.5437 4.6019 11.1216 4.86225 10.8613C5.1226 10.6009 5.54471 10.6009 5.80506 10.8613L7.6559 12.7121L14.1848 5.87237C14.439 5.60603 14.861 5.59622 15.1273 5.85045Z" fill="#FFF9F0"/>
</svg>
